<svg width="76" height="30" viewBox="0 0 76 30" fill="none" xmlns="http://www.w3.org/2000/svg">
<path d="M8.85252 6.68555C10.9042 6.68555 12.6519 7.45809 14.1083 9.01583C15.5647 10.5736 16.2866 12.4732 16.2866 14.7275C16.2866 16.9818 15.5647 18.8815 14.1083 20.4393C12.6646 21.9717 10.9042 22.7569 8.85252 22.7569C6.72488 22.7569 5.07849 22.0223 3.92601 20.5406V28.4306H0V7.10348H3.92601V8.90184C5.07849 7.42009 6.72488 6.68555 8.85252 6.68555ZM5.11648 17.805C5.90168 18.6029 6.91485 19.0082 8.13064 19.0082C9.34644 19.0082 10.3596 18.6029 11.1575 17.805C11.9553 17.0072 12.3606 15.9687 12.3606 14.7149C12.3606 13.4611 11.9553 12.4226 11.1575 11.6247C10.3596 10.8269 9.34644 10.4216 8.13064 10.4216C6.91485 10.4216 5.91435 10.8269 5.11648 11.6247C4.31861 12.4226 3.92601 13.4611 3.92601 14.7149C3.92601 15.9687 4.31861 17.0072 5.11648 17.805Z" fill="#282828"/>
<path d="M28.8373 7.10352H32.7633V22.3263H28.8373V20.6166C27.8875 22.035 26.3677 22.7442 24.3034 22.7442C22.6443 22.7442 21.2639 22.187 20.1747 21.0725C19.0856 19.958 18.541 18.413 18.541 16.45V7.10352H22.467V15.956C22.467 16.9692 22.7456 17.7417 23.2902 18.2863C23.8348 18.8182 24.5693 19.0969 25.4812 19.0969C26.4944 19.0969 27.3049 18.7802 27.9128 18.147C28.5207 17.5138 28.8246 16.5766 28.8246 15.3101V7.10352H28.8373Z" fill="#282828"/>
<path d="M39.8173 9.72507C40.1846 8.7499 40.7925 8.01536 41.6284 7.5341C42.4642 7.05285 43.4141 6.79956 44.4399 6.79956V11.1815C43.2368 11.0422 42.1729 11.2828 41.2231 11.916C40.2733 12.5493 39.8047 13.5878 39.8047 15.0569V22.339H35.8787V7.10351H39.8047V9.72507H39.8173Z" fill="#282828"/>
<path d="M46.7322 22.3263V0.0999756H50.6582V22.3263H46.7322Z" fill="#282828"/>
<path d="M56.2054 5.27976C55.5595 5.27976 54.9896 5.03913 54.521 4.57054C54.0397 4.08929 53.8118 3.53205 53.8118 2.88615C53.8118 2.24026 54.0524 1.67036 54.521 1.17644C55.0022 0.695186 55.5595 0.441895 56.2054 0.441895C56.8766 0.441895 57.4465 0.682521 57.9277 1.17644C58.409 1.65769 58.637 2.2276 58.637 2.88615C58.637 3.53205 58.3963 4.10195 57.9277 4.57054C57.4465 5.03913 56.8639 5.27976 56.2054 5.27976ZM54.255 22.3262V7.10345H58.181V22.3262H54.255Z" fill="#282828"/>
<path d="M70.2378 6.68555C71.8968 6.68555 73.2773 7.24279 74.3664 8.35727C75.4556 9.47175 76.0002 11.0168 76.0002 12.9798V22.3263H72.0741V13.4737C72.0741 12.4606 71.7955 11.688 71.2509 11.1435C70.7064 10.6116 69.9718 10.3329 69.06 10.3329C68.0468 10.3329 67.2363 10.6496 66.6284 11.2828C66.0205 11.916 65.7165 12.8532 65.7165 14.1196V22.3389H61.7905V7.10348H65.7165V8.81319C66.6537 7.39476 68.1608 6.68555 70.2378 6.68555Z" fill="#282828"/>
</svg>
